Sprint_05400001_forces_filt15Hz.mot
version=1
nRows=52
nColumns=19
inDegrees=yes
endheader
time	R_ground_force_vx	R_ground_force_vy	R_ground_force_vz	R_ground_force_px	R_ground_force_py	R_ground_force_pz	R_ground_torque_x	R_ground_torque_y	R_ground_torque_z	L_ground_force_vx	L_ground_force_vy	L_ground_force_vz	L_ground_force_px	L_ground_force_py	L_ground_force_pz	L_ground_torque_x	L_ground_torque_y	L_ground_torque_z	
2.714500	  0.000000	  0.000000	  0.000000	  0.137913	  0.000000	 -0.240023	  0.000000	  0.000000	  0.000000	-65.043914	202.271644	 18.164942	  1.059777	  0.000000	 -0.431881	  0.000000	 -0.746777	  0.000000
2.715000	  0.000000	  0.000000	  0.000000	  0.139420	  0.000000	 -0.239888	  0.000000	  0.000000	  0.000000	-68.913702	218.108593	 20.519829	  1.067431	  0.000000	 -0.441449	  0.000000	 -0.711526	  0.000000
2.715500	  0.000000	  0.000000	  0.000000	  0.141022	  0.000000	 -0.239818	  0.000000	  0.000000	  0.000000	-72.883225	234.535897	 22.982942	  1.065489	  0.000000	 -0.438738	  0.000000	 -0.678084	  0.000000
2.716000	  0.000000	  0.000000	  0.000000	  0.142624	  0.000000	 -0.239748	  0.000000	  0.000000	  0.000000	-76.949663	251.556514	 25.557158	  1.063685	  0.000000	 -0.436210	  0.000000	 -0.645688	  0.000000
2.716500	  0.000000	  0.000000	  0.000000	  0.144226	  0.000000	 -0.239678	  0.000000	  0.000000	  0.000000	-81.109825	269.172241	 28.245357	  1.062001	  0.000000	 -0.433843	  0.000000	 -0.613667	  0.000000
2.717000	  0.000000	  0.000000	  0.000000	  0.145828	  0.000000	 -0.239608	  0.000000	  0.000000	  0.000000	-85.360144	287.383633	 31.050384	  1.060423	  0.000000	 -0.431617	  0.000000	 -0.581430	  0.000000
2.717500	  0.000000	  0.000000	  0.000000	  0.147429	  0.000000	 -0.239538	  0.000000	  0.000000	  0.000000	-89.696658	306.189916	 33.975001	  1.058939	  0.000000	 -0.429516	  0.000000	 -0.548454	  0.000000
2.718000	  0.000000	  0.000000	  0.000000	  0.149031	  0.000000	 -0.239468	  0.000000	  0.000000	  0.000000	-94.114995	325.588896	 37.021843	  1.057538	  0.000000	 -0.427526	  0.000000	 -0.514270	  0.000000
2.718500	  0.000000	  0.000000	  0.000000	  0.150633	  0.000000	 -0.239398	  0.000000	  0.000000	  0.000000	-98.610342	345.576865	 40.193366	  1.056212	  0.000000	 -0.425634	  0.000000	 -0.478438	  0.000000
2.719000	  0.000000	  0.000000	  0.000000	  0.152235	  0.000000	 -0.239328	  0.000000	  0.000000	  0.000000	-103.177429	366.148509	 43.491788	  1.054952	  0.000000	 -0.423830	  0.000000	 -0.440540	  0.000000
2.719500	  0.000000	  0.000000	  0.000000	  0.153837	  0.000000	 -0.239258	  0.000000	  0.000000	  0.000000	-107.810498	387.296806	 46.919020	  1.053751	  0.000000	 -0.422102	  0.000000	 -0.400172	  0.000000
2.720000	  0.000000	  0.000000	  0.000000	  0.155439	  0.000000	 -0.239187	  0.000000	  0.000000	  0.000000	-112.503302	409.012925	 50.476586	  1.052605	  0.000000	 -0.420444	  0.000000	 -0.356952	  0.000000
2.720500	  0.000000	  0.000000	  0.000000	  0.157156	  0.000000	 -0.239054	  0.000000	  0.000000	  0.000000	-117.249101	431.286123	 54.165544	  1.051507	  0.000000	 -0.418848	  0.000000	 -0.310543	  0.000000
2.721000	  0.000000	  0.000000	  0.000000	  0.158872	  0.000000	 -0.238921	  0.000000	  0.000000	  0.000000	-122.040698	454.103637	 57.986407	  1.050455	  0.000000	 -0.417306	  0.000000	 -0.260684	  0.000000
2.721500	  0.000000	  0.000000	  0.000000	  0.160589	  0.000000	 -0.238788	  0.000000	  0.000000	  0.000000	-126.870481	477.450576	 61.939076	  1.049443	  0.000000	 -0.415814	  0.000000	 -0.207223	  0.000000
2.722000	  0.000000	  0.000000	  0.000000	  0.162306	  0.000000	 -0.238655	  0.000000	  0.000000	  0.000000	-131.730496	501.309803	 66.022781	  1.048470	  0.000000	 -0.414367	  0.000000	 -0.150149	  0.000000
2.722500	  0.000000	  0.000000	  0.000000	  0.164023	  0.000000	 -0.238522	  0.000000	  0.000000	  0.000000	-136.612530	525.661827	 70.236027	  1.047531	  0.000000	 -0.412959	  0.000000	 -0.089623	  0.000000
2.723000	  0.000000	  0.000000	  0.000000	  0.165740	  0.000000	 -0.238389	  0.000000	  0.000000	  0.000000	-141.508211	550.484802	 74.576555	  1.046625	  0.000000	 -0.411587	  0.000000	 -0.025998	  0.000000
2.723500	  0.000000	  0.000000	  0.000000	  0.167457	  0.000000	 -0.238255	  0.000000	  0.000000	  0.000000	-146.409106	575.754897	 79.041285	  1.045749	  0.000000	 -0.410247	  0.000000	  0.040163	  0.000000
2.724000	  0.000000	  0.000000	  0.000000	  0.169173	  0.000000	 -0.238122	  0.000000	  0.000000	  0.000000	-151.306809	601.446946	 83.626268	  1.044901	  0.000000	 -0.408937	  0.000000	  0.108082	  0.000000
2.724500	  0.000000	  0.000000	  0.000000	  0.170890	  0.000000	 -0.237989	  0.000000	  0.000000	  0.000000	-156.193031	627.534983	 88.326627	  1.044079	  0.000000	 -0.407654	  0.000000	  0.176752	  0.000000
2.725000	  0.000000	  0.000000	  0.000000	  0.172607	  0.000000	 -0.237856	  0.000000	  0.000000	  0.000000	-161.059667	653.992532	 93.136475	  1.043281	  0.000000	 -0.406395	  0.000000	  0.244933	  0.000000
2.725500	  0.000000	  0.000000	  0.000000	  0.174398	  0.000000	 -0.237722	  0.000000	  0.000000	  0.000000	-165.898868	680.792822	 98.048845	  1.042506	  0.000000	 -0.405159	  0.000000	  0.311148	  0.000000
2.726000	  0.000000	  0.000000	  0.000000	  0.176190	  0.000000	 -0.237588	  0.000000	  0.000000	  0.000000	-170.703097	707.908998	103.055599	  1.041752	  0.000000	 -0.403944	  0.000000	  0.373675	  0.000000
2.726500	  0.000000	  0.000000	  0.000000	  0.177981	  0.000000	 -0.237454	  0.000000	  0.000000	  0.000000	-175.465211	735.314311	108.147361	  1.041017	  0.000000	 -0.402749	  0.000000	  0.430531	  0.000000
2.727000	  0.000000	  0.000000	  0.000000	  0.179772	  0.000000	 -0.237320	  0.000000	  0.000000	  0.000000	-180.178534	762.982288	113.313469	  1.040298	  0.000000	 -0.401572	  0.000000	  0.479459	  0.000000
2.727500	  0.000000	  0.000000	  0.000000	  0.181564	  0.000000	 -0.237186	  0.000000	  0.000000	  0.000000	-184.836963	790.886879	118.541958	  1.039595	  0.000000	 -0.400413	  0.000000	  0.517901	  0.000000
2.728000	  0.000000	  0.000000	  0.000000	  0.183355	  0.000000	 -0.237052	  0.000000	  0.000000	  0.000000	-189.435079	819.002565	123.819586	  1.038905	  0.000000	 -0.399272	  0.000000	  0.542977	  0.000000
2.728500	  0.000000	  0.000000	  0.000000	  0.185147	  0.000000	 -0.236918	  0.000000	  0.000000	  0.000000	-193.968283	847.304448	129.131897	  1.038227	  0.000000	 -0.398148	  0.000000	  0.551478	  0.000000
2.729000	  0.000000	  0.000000	  0.000000	  0.186938	  0.000000	 -0.236784	  0.000000	  0.000000	  0.000000	-198.432939	875.768325	134.463314	  1.037559	  0.000000	 -0.397040	  0.000000	  0.539875	  0.000000
2.729500	  0.000000	  0.000000	  0.000000	  0.188729	  0.000000	 -0.236650	  0.000000	  0.000000	  0.000000	-202.826526	904.370769	139.797250	  1.036898	  0.000000	 -0.395950	  0.000000	  0.504344	  0.000000
2.730000	  0.000000	  0.000000	  0.000000	  0.190521	  0.000000	 -0.236516	  0.000000	  0.000000	  0.000000	-207.147776	933.089228	145.116235	  1.036242	  0.000000	 -0.394877	  0.000000	  0.440821	  0.000000
2.730500	  0.000000	  0.000000	  0.000000	  0.192603	  0.000000	 -0.236212	  0.000000	  0.000000	  0.000000	-211.396786	961.902132	150.402030	  1.035590	  0.000000	 -0.393821	  0.000000	  0.345064	  0.000000
2.731000	  0.000000	  0.000000	  0.000000	  0.194684	  0.000000	 -0.235908	  0.000000	  0.000000	  0.000000	-215.575107	990.789014	155.635755	  1.034939	  0.000000	 -0.392783	  0.000000	  0.212729	  0.000000
2.731500	  0.000000	  0.000000	  0.000000	  0.196766	  0.000000	 -0.235604	  0.000000	  0.000000	  0.000000	-219.685778	1019.730581	160.797995	  1.034287	  0.000000	 -0.391763	  0.000000	  0.039454	  0.000000
2.732000	  0.000000	  0.000000	  0.000000	  0.198848	  0.000000	 -0.235300	  0.000000	  0.000000	  0.000000	-223.733336	1048.708724	165.868930	  1.033630	  0.000000	 -0.390761	  0.000000	 -0.179053	  0.000000
2.732500	  0.000000	  0.000000	  0.000000	  0.200930	  0.000000	 -0.234996	  0.000000	  0.000000	  0.000000	-227.723782	1077.706459	170.828460	  1.032966	  0.000000	 -0.389777	  0.000000	 -0.446911	  0.000000
2.733000	  0.000000	  0.000000	  0.000000	  0.203012	  0.000000	 -0.234692	  0.000000	  0.000000	  0.000000	-231.664514	1106.707786	175.656354	  1.032290	  0.000000	 -0.388812	  0.000000	 -0.767968	  0.000000
2.733500	  0.000000	  0.000000	  0.000000	  0.205094	  0.000000	 -0.234388	  0.000000	  0.000000	  0.000000	-235.564231	1135.697521	180.332401	  1.031600	  0.000000	 -0.387865	  0.000000	 -1.145695	  0.000000
2.734000	  0.000000	  0.000000	  0.000000	  0.207175	  0.000000	 -0.234084	  0.000000	  0.000000	  0.000000	-239.432792	1164.661104	184.836564	  1.030891	  0.000000	 -0.386936	  0.000000	 -1.583093	  0.000000
2.734500	  0.000000	  0.000000	  0.000000	  0.209257	  0.000000	 -0.233780	  0.000000	  0.000000	  0.000000	-243.281039	1193.584407	189.149126	  1.030161	  0.000000	 -0.386026	  0.000000	 -2.082606	  0.000000
2.735000	  0.000000	  0.000000	  0.000000	  0.211339	  0.000000	 -0.233476	  0.000000	  0.000000	  0.000000	-247.120570	1222.453532	193.250818	  1.029405	  0.000000	 -0.385134	  0.000000	 -2.646046	  0.000000
2.735500	  0.000000	  0.000000	  0.000000	  0.213079	  0.000000	 -0.233378	  0.000000	  0.000000	  0.000000	-250.963467	1251.254627	197.122920	  1.028620	  0.000000	 -0.384259	  0.000000	 -3.274518	  0.000000
2.736000	  0.000000	  0.000000	  0.000000	  0.214820	  0.000000	 -0.233281	  0.000000	  0.000000	  0.000000	-254.821982	1279.973702	200.747328	  1.027805	  0.000000	 -0.383402	  0.000000	 -3.968349	  0.000000
2.736500	  0.000000	  0.000000	  0.000000	  0.216560	  0.000000	 -0.233183	  0.000000	  0.000000	  0.000000	-258.708179	1308.596506	204.106583	  1.026957	  0.000000	 -0.382563	  0.000000	 -4.727024	  0.000000
2.737000	  0.000000	  0.000000	  0.000000	  0.218301	  0.000000	 -0.233086	  0.000000	  0.000000	  0.000000	-262.633554	1337.108464	207.183877	  1.026074	  0.000000	 -0.381741	  0.000000	 -5.549125	  0.000000
2.737500	  0.000000	  0.000000	  0.000000	  0.220041	  0.000000	 -0.232988	  0.000000	  0.000000	  0.000000	-266.608664	1365.494670	209.963031	  1.025156	  0.000000	 -0.380936	  0.000000	 -6.432293	  0.000000
2.738000	  0.000000	  0.000000	  0.000000	  0.221782	  0.000000	 -0.232891	  0.000000	  0.000000	  0.000000	-270.642779	1393.739946	212.428479	  1.024202	  0.000000	 -0.380149	  0.000000	 -7.373209	  0.000000
2.738500	  0.000000	  0.000000	  0.000000	  0.223522	  0.000000	 -0.232794	  0.000000	  0.000000	  0.000000	-274.743605	1421.828892	214.565261	  1.023213	  0.000000	 -0.379379	  0.000000	 -8.367601	  0.000000
2.739000	  0.000000	  0.000000	  0.000000	  0.225263	  0.000000	 -0.232696	  0.000000	  0.000000	  0.000000	-278.917084	1449.745933	216.359046	  1.022190	  0.000000	 -0.378628	  0.000000	 -9.410269	  0.000000
2.739500	  0.000000	  0.000000	  0.000000	  0.227003	  0.000000	 -0.232599	  0.000000	  0.000000	  0.000000	-283.167267	1477.475330	217.796194	  1.021134	  0.000000	 -0.377894	  0.000000	-10.495152	  0.000000
2.740000	  0.000000	  0.000000	  0.000000	  0.228743	  0.000000	 -0.232501	  0.000000	  0.000000	  0.000000	-287.496260	1505.001173	218.863844	  1.020048	  0.000000	 -0.377180	  0.000000	-11.615411	  0.000000
